<svg xmlns="http://www.w3.org/2000/svg" xmlns:xlink="http://www.w3.org/1999/xlink" width="146.904" height="28" viewBox="0 0 146.904 28"><defs><style>.a{fill:url(#a);}.b{fill:#614b82;}.c{fill:#7a70b2;}.d{fill:#6b4ea5;}.e{opacity:0.84;fill:url(#b);}.f{fill:#fff;}</style><linearGradient id="a" x1="0.107" y1="0.617" x2="0.764" y2="0.369" gradientUnits="objectBoundingBox"><stop offset="0" stop-color="#cfc5e2"/><stop offset="0.784" stop-color="#7a70b2"/></linearGradient><linearGradient id="b" x1="0.739" y1="0.753" x2="-0.15" y2="-0.107" gradientUnits="objectBoundingBox"><stop offset="0" stop-color="#6b4ea5"/><stop offset="0.678" stop-color="#7a70b2"/></linearGradient></defs><g transform="translate(-1.073 -0.6)"><g transform="translate(1.073 0.6)"><g transform="translate(0)"><path class="a" d="M19.254,21.8l-1.167-1.944a1.351,1.351,0,0,0-1.131-.636H11.865a.623.623,0,0,1-.566-.848l3.076-7.566a1.379,1.379,0,0,0,0-1.061l-1.308-2.9a1.333,1.333,0,0,0-2.439,0L3.062,23.815h0L1.188,28.058a1.333,1.333,0,0,0,1.237,1.874H5.749a1.331,1.331,0,0,0,1.237-.848l1.8-4.419a1.386,1.386,0,0,1,1.237-.848h8.131A1.327,1.327,0,0,0,19.254,21.8Z" transform="translate(-1.073 -4.123)"/><path class="b" d="M23.8,6.752l7.672,19.621H45.26L43.527,22.7a4.246,4.246,0,0,0-3.818-2.439H35.148L26.558.6Z" transform="translate(-15.765 -0.6)"/><path class="c" d="M35.148,20.292l2.616,6.116-6.258-.035L23.8,6.752,26.558.6Z" transform="translate(-15.765 -0.6)"/><path class="d" d="M44.716,56.3H38.6l2.475,6.081,6.258.035Z" transform="translate(-25.333 -36.608)"/><path class="e" d="M38.6,44.858,41.994,38.6l2.722,6.258-3.641,6.081Z" transform="translate(-25.333 -25.166)"/></g><g transform="translate(33.101 4.596)"><path class="f" d="M94.7,21.324V14.006a.094.094,0,0,1,.106-.106h2.545a2.4,2.4,0,0,1,1.7.566,1.949,1.949,0,0,1,.636,1.52V19.38a1.949,1.949,0,0,1-.636,1.52,2.4,2.4,0,0,1-1.7.566H94.806C94.735,21.43,94.7,21.395,94.7,21.324Zm.778-.566h1.874a1.548,1.548,0,0,0,1.131-.424,1.465,1.465,0,0,0,.424-1.1V16.057a1.412,1.412,0,0,0-.424-1.1,1.493,1.493,0,0,0-1.131-.424H95.478c-.035,0-.035,0-.035.035v6.116C95.442,20.759,95.478,20.759,95.478,20.759Z" transform="translate(-94.7 -13.794)"/><path class="f" d="M116,21.024a2.13,2.13,0,0,1-.884-.884,2.654,2.654,0,0,1-.318-1.308V16.11a2.654,2.654,0,0,1,.318-1.308,2.13,2.13,0,0,1,.884-.884,3,3,0,0,1,2.687,0,2.215,2.215,0,0,1,.919.884,2.654,2.654,0,0,1,.318,1.308v2.722a2.654,2.654,0,0,1-.318,1.308,2.215,2.215,0,0,1-.919.884,3,3,0,0,1-2.687,0Zm2.652-.848a1.816,1.816,0,0,0,.495-1.308V16.11a1.8,1.8,0,1,0-3.606,0v2.758a1.7,1.7,0,0,0,1.8,1.8A1.759,1.759,0,0,0,118.654,20.176Z" transform="translate(-107.694 -13.6)"/><path class="f" d="M136.9,21.124a2.271,2.271,0,0,1-.884-.848,2.388,2.388,0,0,1-.318-1.237v-2.97a2.388,2.388,0,0,1,.318-1.237,2.271,2.271,0,0,1,.884-.848,2.639,2.639,0,0,1,1.308-.283,2.975,2.975,0,0,1,1.308.283,1.972,1.972,0,0,1,.884.813,2.261,2.261,0,0,1,.318,1.2c0,.035,0,.071-.035.071-.035.035-.035.035-.071.035l-.566.035a.094.094,0,0,1-.106-.106V16a1.831,1.831,0,0,0-3.04-1.237,1.625,1.625,0,0,0-.495,1.2v3.005a1.57,1.57,0,0,0,.495,1.2,1.992,1.992,0,0,0,2.545,0,1.649,1.649,0,0,0,.495-1.237V18.9a.094.094,0,0,1,.106-.106l.566.035a.094.094,0,0,1,.106.106,2.388,2.388,0,0,1-.318,1.237,1.972,1.972,0,0,1-.884.813,4.157,4.157,0,0,1-2.616.141Z" transform="translate(-121.205 -13.665)"/><path class="f" d="M156.9,21.324V14.006a.094.094,0,0,1,.106-.106h.566a.094.094,0,0,1,.106.106v3.641a.035.035,0,0,0,.035.035h.035l3.394-3.712a.184.184,0,0,1,.141-.071h.636c.035,0,.071,0,.071.035s0,.071-.035.071l-2.652,2.97v.071l2.864,4.242.035.071c0,.035-.035.071-.106.071h-.636a.184.184,0,0,1-.141-.071l-2.545-3.747-.035-.035H158.7l-1.025,1.1a.123.123,0,0,0-.035.071v2.581a.094.094,0,0,1-.106.106h-.566C156.935,21.43,156.9,21.395,156.9,21.324Z" transform="translate(-134.91 -13.794)"/><path class="f" d="M182.273,14.572h-3.96c-.035,0-.035,0-.035.035v2.652c0,.035,0,.035.035.035h2.793a.094.094,0,0,1,.106.106v.46a.094.094,0,0,1-.106.106h-2.793c-.035,0-.035,0-.035.035v2.687c0,.035,0,.035.035.035h3.96a.094.094,0,0,1,.106.106v.46a.094.094,0,0,1-.106.106h-4.667a.094.094,0,0,1-.106-.106V14.006a.094.094,0,0,1,.106-.106h4.667a.094.094,0,0,1,.106.106v.46A.094.094,0,0,1,182.273,14.572Z" transform="translate(-148.227 -13.794)"/><path class="f" d="M201.6,14.006v.46a.094.094,0,0,1-.106.106H199.37c-.035,0-.035,0-.035.035v6.717a.094.094,0,0,1-.106.106h-.566a.094.094,0,0,1-.106-.106V14.607c0-.035,0-.035-.035-.035h-2.015a.094.094,0,0,1-.106-.106v-.46a.094.094,0,0,1,.106-.106h4.985A.094.094,0,0,1,201.6,14.006Z" transform="translate(-160.445 -13.794)"/></g><g transform="translate(32.464 15.874)"><path class="f" d="M99.016,56.12l-.424-1.591H95.834L95.41,56.12H92.9l2.758-8.52h3.076l2.793,8.52Zm-.884-3.5-.354-1.379c-.071-.318-.177-.707-.318-1.2-.106-.495-.212-.848-.247-1.061-.035.212-.106.53-.212.99s-.318,1.343-.672,2.687h1.8Z" transform="translate(-92.9 -46.858)"/><path class="f" d="M121.863,55.151H119.6V46.1h2.263Z" transform="translate(-110.161 -45.888)"/><path class="f" d="M130.71,59.611,128.2,53h2.369l1.131,3.889c0,.035,0,.035.035.106a1.531,1.531,0,0,1,.035.177c0,.071.035.141.035.212V57.6h.035a2.4,2.4,0,0,1,.106-.672l1.167-3.889h2.369l-2.51,6.576Z" transform="translate(-115.72 -50.348)"/><path class="f" d="M154.631,59.482l-.424-.884h-.035a2.569,2.569,0,0,1-.919.778,3.111,3.111,0,0,1-1.237.212,1.817,1.817,0,0,1-1.449-.566A2.2,2.2,0,0,1,150,57.467a1.723,1.723,0,0,1,.742-1.556,3.887,3.887,0,0,1,2.121-.566l1.1-.035V55.2a.728.728,0,0,0-.813-.813,4.941,4.941,0,0,0-1.838.495l-.672-1.485a6.405,6.405,0,0,1,2.9-.6,2.741,2.741,0,0,1,1.944.636,2.262,2.262,0,0,1,.707,1.768v4.313h-1.556Zm-1.662-1.52a1.019,1.019,0,0,0,.707-.247.792.792,0,0,0,.283-.672v-.495l-.53.035c-.742.035-1.131.318-1.131.813C152.333,57.785,152.545,57.962,152.97,57.962Z" transform="translate(-129.813 -50.219)"/><path class="f" d="M175.96,52.7a2.858,2.858,0,0,1,.566.035l.141.035-.212,2.157a4.17,4.17,0,0,0-.778-.071,1.463,1.463,0,0,0-1.1.354,1.4,1.4,0,0,0-.354.99v3.253H172V52.806h1.7l.354,1.061h.106a2.248,2.248,0,0,1,.778-.848A1.931,1.931,0,0,1,175.96,52.7Z" transform="translate(-144.035 -50.155)"/><path class="f" d="M191.5,55.021l-.424-.884h-.035a2.569,2.569,0,0,1-.919.778,3.111,3.111,0,0,1-1.237.212,1.817,1.817,0,0,1-1.449-.566,2.184,2.184,0,0,1-.53-1.556,1.723,1.723,0,0,1,.742-1.556,3.887,3.887,0,0,1,2.121-.566l1.1-.035v-.106a.728.728,0,0,0-.813-.813,4.941,4.941,0,0,0-1.838.495l-.672-1.485a6.405,6.405,0,0,1,2.9-.6,2.742,2.742,0,0,1,1.944.636,2.262,2.262,0,0,1,.707,1.768v4.313H191.5Zm-2.545-7.212v-.177c.6-.636.99-1.061,1.131-1.237a3.892,3.892,0,0,0,.389-.495h2.475v.106q-.477.371-1.273.955c-.53.389-.955.672-1.237.848ZM189.8,53.5a1.019,1.019,0,0,0,.707-.247.792.792,0,0,0,.283-.672v-.495l-.53.035c-.742.035-1.131.318-1.131.813C189.163,53.324,189.375,53.5,189.8,53.5Z" transform="translate(-153.668 -45.759)"/><path class="f" d="M213.726,57.367a1.893,1.893,0,0,1-.707,1.591,3.45,3.45,0,0,1-2.051.53,12.478,12.478,0,0,1-1.273-.071,4.176,4.176,0,0,1-1.1-.283v-1.8a9.017,9.017,0,0,0,1.167.389,4.5,4.5,0,0,0,1.131.141c.495,0,.742-.106.742-.354a.428.428,0,0,0-.212-.318,6.163,6.163,0,0,0-1.2-.53,3.061,3.061,0,0,1-1.273-.848,1.869,1.869,0,0,1-.354-1.2,1.65,1.65,0,0,1,.707-1.414,3.269,3.269,0,0,1,2.015-.495,4.746,4.746,0,0,1,1.237.141,9.862,9.862,0,0,1,1.2.424l-.6,1.449c-.318-.141-.636-.247-.955-.354a2.787,2.787,0,0,0-.813-.141c-.389,0-.566.106-.566.283a.332.332,0,0,0,.212.283c.141.071.495.247,1.131.495a3.773,3.773,0,0,1,1.025.566,1.728,1.728,0,0,1,.495.636A8.331,8.331,0,0,0,213.726,57.367Z" transform="translate(-167.696 -50.155)"/><path class="f" d="M240.522,55.991l-.566-.6a5.336,5.336,0,0,1-.848.46,3.82,3.82,0,0,1-.742.177,7.53,7.53,0,0,1-.955.071,3.926,3.926,0,0,1-1.626-.318,2.7,2.7,0,0,1-1.1-.884,2.342,2.342,0,0,1-.389-1.273,2.513,2.513,0,0,1,1.591-2.333,3.937,3.937,0,0,1-.566-.848,2.418,2.418,0,0,1-.212-1.025,1.827,1.827,0,0,1,.707-1.485,3,3,0,0,1,1.98-.53,3.063,3.063,0,0,1,1.909.53,1.753,1.753,0,0,1,.672,1.485,2.161,2.161,0,0,1-.354,1.2,3.377,3.377,0,0,1-1.167,1.025l1.167,1.1a4.417,4.417,0,0,0,.6-1.52H243a5.733,5.733,0,0,1-.566,1.591,6.519,6.519,0,0,1-.848,1.379l1.874,1.768h-2.934Zm-3.854-2.545a.728.728,0,0,0,.247.6,1.065,1.065,0,0,0,.707.247,2.46,2.46,0,0,0,.566-.071,1.917,1.917,0,0,0,.389-.212l-1.449-1.449A1.017,1.017,0,0,0,236.669,53.445Zm1.7-4.066a.585.585,0,0,0-.177-.424.758.758,0,0,0-.424-.141.564.564,0,0,0-.424.141.611.611,0,0,0-.177.46,1.269,1.269,0,0,0,.495.884,1.564,1.564,0,0,0,.495-.46C238.33,49.769,238.366,49.592,238.366,49.38Z" transform="translate(-184.31 -46.728)"/><path class="f" d="M271.4,56.185V47.7h2.3v6.646h3.288v1.838Z" transform="translate(-208.294 -46.922)"/><path class="f" d="M290.5,46.525a1.042,1.042,0,0,1,.283-.778,1.831,1.831,0,0,1,1.838,0,1.013,1.013,0,0,1,.283.742c0,.672-.389.99-1.2.99C290.889,47.515,290.5,47.2,290.5,46.525Zm2.333,8.237h-2.263V48.152h2.263Z" transform="translate(-220.641 -45.5)"/><path class="f" d="M303.988,59.523a3.129,3.129,0,0,1-2.439-.884,3.436,3.436,0,0,1,2.581-5.939,4.95,4.95,0,0,1,2.157.495l-.672,1.662c-.283-.106-.53-.212-.778-.283a2.512,2.512,0,0,0-.742-.106,1.008,1.008,0,0,0-.848.424,2.02,2.02,0,0,0-.318,1.2q0,1.591,1.167,1.591A3.436,3.436,0,0,0,306,57.119v1.8A3.181,3.181,0,0,1,303.988,59.523Z" transform="translate(-227.235 -50.155)"/><path class="f" d="M322.365,59.588a3.434,3.434,0,0,1-2.545-.884,3.28,3.28,0,0,1-.919-2.475,3.513,3.513,0,0,1,.848-2.545,3.746,3.746,0,0,1,4.7-.106,3.02,3.02,0,0,1,.813,2.227V56.83H321.2a1.026,1.026,0,0,0,.389.848,1.547,1.547,0,0,0,1.025.318,5.24,5.24,0,0,0,1.1-.106,5.9,5.9,0,0,0,1.1-.389v1.626a4.053,4.053,0,0,1-1.1.389C323.319,59.553,322.895,59.588,322.365,59.588Zm-.141-5.268a.88.88,0,0,0-.672.247,1.216,1.216,0,0,0-.318.778h1.944a1.165,1.165,0,0,0-.283-.778A.832.832,0,0,0,322.223,54.32Z" transform="translate(-239.001 -50.219)"/><path class="f" d="M344.7,59.353V55.746a2.358,2.358,0,0,0-.177-.99.655.655,0,0,0-.6-.318.8.8,0,0,0-.813.46,3.433,3.433,0,0,0-.247,1.591v2.864H340.6V52.741h1.7l.283.813h.141a1.778,1.778,0,0,1,.813-.707A3.125,3.125,0,0,1,344.7,52.6a2.187,2.187,0,0,1,1.7.636A2.546,2.546,0,0,1,347,55v4.278h-2.3Z" transform="translate(-253.029 -50.09)"/><path class="f" d="M365.488,59.523a3.129,3.129,0,0,1-2.439-.884,3.436,3.436,0,0,1,2.581-5.939,4.95,4.95,0,0,1,2.157.495l-.672,1.662c-.283-.106-.53-.212-.778-.283a2.512,2.512,0,0,0-.742-.106,1.008,1.008,0,0,0-.848.424,2.02,2.02,0,0,0-.318,1.2q0,1.591,1.167,1.591a3.436,3.436,0,0,0,1.909-.566v1.8A3.252,3.252,0,0,1,365.488,59.523Zm1.167,1.343a1.36,1.36,0,0,1-.424,1.025,1.718,1.718,0,0,1-1.167.389,3.676,3.676,0,0,1-1.237-.177V60.9a2.655,2.655,0,0,0,.848.141c.212,0,.318-.106.318-.283,0-.141-.071-.247-.247-.354a2.171,2.171,0,0,0-.636-.247l.424-.813H365.7l-.035.177a1.506,1.506,0,0,1,.778.53A1.549,1.549,0,0,1,366.655,60.867Z" transform="translate(-266.993 -50.155)"/><path class="f" d="M384.9,59.482l-.424-.884h-.035a2.569,2.569,0,0,1-.919.778,3.111,3.111,0,0,1-1.237.212,1.817,1.817,0,0,1-1.449-.566,2.184,2.184,0,0,1-.53-1.556,1.723,1.723,0,0,1,.742-1.556,3.887,3.887,0,0,1,2.121-.566l1.1-.035V55.2a.728.728,0,0,0-.813-.813,4.941,4.941,0,0,0-1.838.495l-.672-1.485a6.406,6.406,0,0,1,2.9-.6,2.741,2.741,0,0,1,1.944.636,2.262,2.262,0,0,1,.707,1.768v4.313H384.9Zm-1.662-1.52a1.019,1.019,0,0,0,.707-.247.792.792,0,0,0,.283-.672v-.495l-.53.035c-.742.035-1.131.318-1.131.813C382.563,57.785,382.775,57.962,383.234,57.962Z" transform="translate(-278.694 -50.219)"/><path class="f" d="M407.126,57.367a1.893,1.893,0,0,1-.707,1.591,3.377,3.377,0,0,1-2.051.53,12.478,12.478,0,0,1-1.273-.071,4.176,4.176,0,0,1-1.1-.283v-1.8a9.019,9.019,0,0,0,1.167.389,4.5,4.5,0,0,0,1.131.141c.495,0,.742-.106.742-.354a.428.428,0,0,0-.212-.318,6.162,6.162,0,0,0-1.2-.53,3.061,3.061,0,0,1-1.273-.848,1.869,1.869,0,0,1-.354-1.2,1.65,1.65,0,0,1,.707-1.414,3.269,3.269,0,0,1,2.015-.495,4.746,4.746,0,0,1,1.237.141,9.864,9.864,0,0,1,1.2.424l-.6,1.449c-.318-.141-.636-.247-.955-.354a2.614,2.614,0,0,0-.813-.141c-.389,0-.566.106-.566.283a.332.332,0,0,0,.212.283c.141.071.495.247,1.131.495a3.773,3.773,0,0,1,1.025.566,1.728,1.728,0,0,1,.495.636C407.091,56.73,407.126,57.013,407.126,57.367Z" transform="translate(-292.722 -50.155)"/></g></g></g></svg>