<svg xmlns="http://www.w3.org/2000/svg" width="32" height="32" viewBox="0 0 32 32">
  <g id="approve" transform="translate(-276 -161)" style="isolation: isolate">
    <g id="Grupo_14625" data-name="Grupo 14625">
      <g id="Grupo_14387" data-name="Grupo 14387" transform="translate(9 -446)">
        <circle id="Elipse_500" data-name="Elipse 500" cx="16" cy="16" r="16" transform="translate(267 607)" fill="#ebf0f5"/>
      </g>
    </g>
    <g id="check_circle-24px_4_" data-name="check_circle-24px (4)" transform="translate(276 161)">
      <path id="Caminho_7692" data-name="Caminho 7692" d="M0,0H32V32H0Z" fill="none"/>
      <path id="Caminho_7693" data-name="Caminho 7693" d="M14.665,4A10.665,10.665,0,1,0,25.33,14.665,10.679,10.679,0,0,0,14.665,4ZM12,21.331,6.666,16l1.88-1.88L12,17.558l8.785-8.785,1.88,1.893Z" transform="translate(1.335 1.335)" fill="#c4c8cc"/>
      <path id="Caminho_7694" data-name="Caminho 7694" d="M15.333,2A13.333,13.333,0,1,0,28.665,15.333,13.337,13.337,0,0,0,15.333,2Zm0,24A10.666,10.666,0,1,1,26,15.333,10.68,10.68,0,0,1,15.333,26ZM21.452,9.44l-8.786,8.786-3.453-3.44-1.88,1.88L12.666,22,23.332,11.333Z" transform="translate(0.667 0.667)" fill="#8584a9"/>
    </g>
  </g>
</svg>
