<svg id="ico-pin-vermelho" xmlns="http://www.w3.org/2000/svg" width="18" height="18" viewBox="0 0 18 18">
    <path id="Caminho_7718" data-name="Caminho 7718" d="M0,0H18V18H0Z" fill="none"/>
    <g id="Grupo_14696" transform="translate(1.823 1.016)">
        <g id="Grupo_14693" transform="translate(0 0)">
            <g id="room-24px_1_" transform="translate(0 0)">
                <g id="Grupo_14695" transform="translate(0)">
                    <g id="Caminho_7810" transform="translate(2.839)">
                        <path id="Caminho_7725" data-name="Caminho 7725" d="M23.55,4.641A4.421,4.421,0,0,0,20.4,3.3h0a4.29,4.29,0,0,0-3.155,1.341A4.421,4.421,0,0,0,15.9,7.8c0,2.918,3.312,7.177,4.5,8.6,1.183-1.42,4.5-5.6,4.5-8.518A4.6,4.6,0,0,0,23.55,4.641Zm-3.234,5.6h0a2.373,2.373,0,0,1-2.366-2.366,2.324,2.324,0,0,1,2.366-2.366,2.27,2.27,0,0,1,1.656.71,2.27,2.27,0,0,1,.71,1.656A2.373,2.373,0,0,1,20.317,10.24Z" transform="translate(-14.796 -2.275)" fill="#ba87cc"/>
                        <g id="Grupo_15407" data-name="Grupo 15407">
                            <path id="Caminho_7726" data-name="Caminho 7726" d="M23.55,4.641A4.421,4.421,0,0,0,20.4,3.3h0a4.29,4.29,0,0,0-3.155,1.341A4.421,4.421,0,0,0,15.9,7.8c0,2.918,3.312,7.177,4.5,8.6,1.183-1.42,4.5-5.6,4.5-8.518A4.6,4.6,0,0,0,23.55,4.641Zm-3.234,5.6h0a2.373,2.373,0,0,1-2.366-2.366,2.324,2.324,0,0,1,2.366-2.366,2.27,2.27,0,0,1,1.656.71,2.27,2.27,0,0,1,.71,1.656A2.373,2.373,0,0,1,20.317,10.24Z" transform="translate(-14.796 -2.275)" fill="none"/>
                            <path id="Caminho_7727" data-name="Caminho 7727" d="M21.162,7.5a1.262,1.262,0,0,0,0,2.524h0a1.228,1.228,0,0,0,.868-2.129C21.872,7.579,21.556,7.5,21.162,7.5Z" transform="translate(-15.641 -3.162)" fill="none"/>
                            <path id="Caminho_7728" data-name="Caminho 7728" d="M24.043,3.656A5.615,5.615,0,0,0,20.1,2h0a5.3,5.3,0,0,0-3.943,1.656A5.759,5.759,0,0,0,14.5,7.6c0,3.943,4.969,9.464,5.205,9.7l.394.473.394-.473c.237-.237,5.205-5.757,5.205-9.7A5.973,5.973,0,0,0,24.043,3.656ZM20.021,16.117c-1.183-1.42-4.5-5.6-4.5-8.6a4.29,4.29,0,0,1,1.341-3.155,4.421,4.421,0,0,1,3.155-1.341h0a4.29,4.29,0,0,1,3.155,1.341A4.467,4.467,0,0,1,24.516,7.6C24.6,10.518,21.2,14.777,20.021,16.117Z" transform="translate(-14.5 -2)" fill="#2e2d2c"/>
                            <path id="Caminho_7729" data-name="Caminho 7729" d="M20.866,6.1A2.373,2.373,0,0,0,18.5,8.466a2.324,2.324,0,0,0,2.366,2.366h0a2.373,2.373,0,0,0,2.366-2.366,2.27,2.27,0,0,0-.71-1.656A2.148,2.148,0,0,0,20.866,6.1Zm.946,3.234a1.266,1.266,0,0,1-.868.394h0a1.262,1.262,0,1,1,0-2.524,1.357,1.357,0,0,1,1.262,1.262A1.751,1.751,0,0,1,21.812,9.334Z" transform="translate(-15.345 -2.866)" fill="#2e2d2c"/>
                        </g>
                    </g>
                    <circle id="Elipse_566" cx="1.893" cy="1.893" r="1.893" transform="translate(10.568 0.158)" fill="#2e2d2c"/>
                    <g id="Grupo_15408" data-name="Grupo 15408">
                        <path id="Caminho_7730" data-name="Caminho 7730" d="M16.243,3.4A4.522,4.522,0,0,0,12.3,7.9c0,1.814,1.341,4.18,2.445,5.836.631.946,1.341,1.893,2.051,2.76.237-.315.473-.552.71-.868-1.42-1.893-3.549-5.126-3.549-7.65A6.028,6.028,0,0,1,16.243,3.4Z" transform="translate(-11.196 -2.296)" fill="#ba87cc"/>
                        <path id="Caminho_7731" data-name="Caminho 7731" d="M14.765,7.6A4.568,4.568,0,0,1,18,3.262l1.814-.552-1.735-.473A5.465,5.465,0,0,0,16.5,2h0a5.621,5.621,0,0,0-5.6,5.6c0,2.051,1.42,4.653,2.6,6.388a26.749,26.749,0,0,0,2.6,3.312l.394.473.394-.473c.473-.473.946-1.1,1.42-1.656l.237-.315-.237-.315C16.105,12.016,14.765,9.335,14.765,7.6ZM16.5,16.117c-.71-.868-1.42-1.814-2.051-2.76C13.345,11.7,12,9.335,12,7.521a4.582,4.582,0,0,1,3.943-4.5,5.752,5.752,0,0,0-2.287,4.5c0,2.524,2.129,5.757,3.549,7.65A4.916,4.916,0,0,1,16.5,16.117Z" transform="translate(-10.9 -2)" fill="#2e2d2c"/>
                    </g>
                    <g id="Linha_1291" transform="translate(11.357 1.025)">
                        <path id="Caminho_7732" data-name="Caminho 7732" d="M27.508,4.089v.552h-.868v.789h-.473V4.641H25.3V4.089h.868V3.3h.473v.789Z" transform="translate(-25.3 -3.3)" fill="#fff"/>
                    </g>
                </g>
            </g>
        </g>
    </g>
</svg>