<svg xmlns="http://www.w3.org/2000/svg" width="32" height="32" viewBox="0 0 32 32"><defs><style>.a{fill:#ebf0f5;}.b{opacity:0.7;}.c{fill:none;}.d{fill:#c4c8cc;opacity:0.3;}.e{fill:#5a5789;}</style></defs><g transform="translate(-24 -19)"><g transform="translate(24 19)"><circle class="a" cx="16" cy="16" r="16"/></g><g class="b" transform="translate(24 19)"><path class="c" d="M0,0H32V32H0Z"/><path class="d" d="M5,8.667H23.667V6H5Z" transform="translate(1.667 2)"/><path class="e" d="M24.333,4.667H23V2H20.333V4.667H9.667V2H7V4.667H5.667A2.655,2.655,0,0,0,3.013,7.333L3,26a2.666,2.666,0,0,0,2.667,2.667H24.333A2.675,2.675,0,0,0,27,26V7.333A2.675,2.675,0,0,0,24.333,4.667Zm0,21.333H5.667V12.667H24.333Zm0-16H5.667V7.333H24.333ZM15,16.667h6.667v6.667H15Z" transform="translate(1 0.667)"/></g></g></svg>